HIERARCHY
ROOT joint_Root
{
	OFFSET 0.0 0.0 0.0
	CHANNELS 6 Xposition Yposition Zposition Zrotation Xrotation Yrotation 
	JOINT Hips
	{
		OFFSET -17.1583 93.1646 452.98
		CHANNELS 6 Xposition Yposition Zposition Zrotation Xrotation Yrotation 
		JOINT Spine
		{
			OFFSET 15.7357 0.0 0.0
			CHANNELS 6 Xposition Yposition Zposition Zrotation Xrotation Yrotation 
			JOINT Chest
			{
				OFFSET 8.98455 -0.406207 0.0
				CHANNELS 6 Xposition Yposition Zposition Zrotation Xrotation Yrotation 
				JOINT Neck
				{
					OFFSET 16.3773 0.0 0.0
					CHANNELS 6 Xposition Yposition Zposition Zrotation Xrotation Yrotation 
					JOINT Head
					{
						OFFSET 6.45672 0.0 0.0
						CHANNELS 6 Xposition Yposition Zposition Zrotation Xrotation Yrotation 
						End Site
						{
							OFFSET 0.0 0.0 0.0
						}
					}
				}
				JOINT Shoulder_L
				{
					OFFSET 12.9942 -0.242716 4.98039
					CHANNELS 6 Xposition Yposition Zposition Zrotation Xrotation Yrotation 
					JOINT UpperArm_L
					{
						OFFSET 5.34809 0.0 0.0
						CHANNELS 6 Xposition Yposition Zposition Zrotation Xrotation Yrotation 
						JOINT LowerArm_L
						{
							OFFSET 24.3286 1.87007e-05 0.0
							CHANNELS 6 Xposition Yposition Zposition Zrotation Xrotation Yrotation 
							JOINT Hand_L
							{
								OFFSET 22.2916 0.0 0.0
								CHANNELS 6 Xposition Yposition Zposition Zrotation Xrotation Yrotation 
								End Site
								{
									OFFSET 0.0 0.0 0.0
								}
							}
						}
					}
				}
				JOINT Shoulder_R
				{
					OFFSET 12.9945 -0.242716 -4.98039
					CHANNELS 6 Xposition Yposition Zposition Zrotation Xrotation Yrotation 
					JOINT UpperArm_R
					{
						OFFSET -5.34813 0.0 0.0
						CHANNELS 6 Xposition Yposition Zposition Zrotation Xrotation Yrotation 
						JOINT LowerArm_R
						{
							OFFSET -24.3289 0.000322201 0.0
							CHANNELS 6 Xposition Yposition Zposition Zrotation Xrotation Yrotation 
							JOINT Hand_R
							{
								OFFSET -22.2915 -0.000108084 0.0
								CHANNELS 6 Xposition Yposition Zposition Zrotation Xrotation Yrotation 
								End Site
								{
									OFFSET 0.0 0.0 0.0
								}
							}
						}
					}
				}
			}
		}
		JOINT UpperLeg_L
		{
			OFFSET -2.19248 -6.46944 0.0
			CHANNELS 6 Xposition Yposition Zposition Zrotation Xrotation Yrotation 
			JOINT LowerLeg_L
			{
				OFFSET 39.0811 0.0 -1.23785e-05
				CHANNELS 6 Xposition Yposition Zposition Zrotation Xrotation Yrotation 
				JOINT Foot_L
				{
					OFFSET 40.9854 0.0 -1.26872e-05
					CHANNELS 6 Xposition Yposition Zposition Zrotation Xrotation Yrotation 
					JOINT Toes_L
					{
						OFFSET 11.7543 0.0 0.0
						CHANNELS 6 Xposition Yposition Zposition Zrotation Xrotation Yrotation 
						End Site
						{
							OFFSET 0.0 0.0 0.0
						}
					}
				}
			}
		}
		JOINT UpperLeg_R
		{
			OFFSET -2.19251 6.46944 0.0
			CHANNELS 6 Xposition Yposition Zposition Zrotation Xrotation Yrotation 
			JOINT LowerLeg_R
			{
				OFFSET -39.0811 -0.00228153 -0.0401928
				CHANNELS 6 Xposition Yposition Zposition Zrotation Xrotation Yrotation 
				JOINT Foot_R
				{
					OFFSET -40.9854 0.0 0.0
					CHANNELS 6 Xposition Yposition Zposition Zrotation Xrotation Yrotation 
					JOINT Toes_R
					{
						OFFSET -11.7543 0.0 0.0
						CHANNELS 6 Xposition Yposition Zposition Zrotation Xrotation Yrotation 
						End Site
						{
							OFFSET 0.0 0.0 0.0
						}
					}
				}
			}
		}
	}
}
MOTION
Frames:	4
Frame Time:	0.0333333
0.000000 0.000000 0.000000 0.000000 0.000000 -0.000000 0.275973 91.498300 6.953980 88.864000 0.461241 7.643510 15.735700 0.000005 -0.000001 -122.995000 89.225600 124.179000 8.984550 -0.406207 -0.000000 -9.071280 0.666684 2.427950 16.377300 -0.000001 -0.000001 -4.643740 0.481336 -2.002150 6.456720 -0.000001 -0.000000 4.574070 -0.271312 -2.262970 12.994200 -0.242716 4.980390 -89.251800 -1.477350 -63.136000 5.348090 -0.000007 -0.000001 -70.308400 -59.732200 -113.021000 24.328600 0.000019 0.000005 -0.002854 -1.237030 -0.134321 22.291600 -0.000001 0.000005 51.686200 4.056500 23.418600 12.994500 -0.242716 -4.980390 92.946700 -5.789530 -62.965300 -5.348130 -0.000001 -0.000004 -68.230700 -59.782700 -118.943000 -24.328900 0.000322 -0.000009 -0.001056 -18.435200 -0.000103 -22.291500 -0.000108 -0.000004 42.367100 5.469510 -5.352090 -2.192480 -6.469440 -0.000000 -173.644000 -6.525090 9.110110 39.081100 -0.000007 -0.000012 0.055452 -0.157501 19.395900 40.985400 -0.000006 -0.000013 1.299710 13.496900 -74.214000 11.754300 -0.000000 0.000003 -0.001943 0.195625 -8.640180 -2.192510 6.469440 -0.000001 174.618000 4.967500 -169.521000 -39.081100 -0.002282 -0.040193 0.035771 -0.106191 16.989200 -40.985400 0.000008 0.000006 -5.615320 6.506520 -74.680000 -11.754300 -0.000006 -0.000006 -0.011291 0.280710 -5.166130
0.000000 0.000000 0.000000 0.000000 0.000000 -0.000000 0.265148 91.518800 6.931730 88.858800 0.419061 7.643390 15.735700 0.000005 -0.000001 -123.604000 89.238200 124.785000 8.984550 -0.406207 -0.000000 -9.041220 0.667219 2.421940 16.377300 -0.000001 -0.000001 -4.495030 0.499451 -1.984960 6.456720 -0.000001 -0.000000 4.522220 -0.212823 -2.279810 12.994200 -0.242716 4.980390 -89.260900 -1.457370 -63.105500 5.348090 -0.000007 -0.000001 -70.475300 -59.539300 -113.130000 24.328600 0.000019 0.000005 -0.004422 -1.198710 -0.213635 22.291600 -0.000001 0.000005 51.617100 4.054390 23.449000 12.994500 -0.242716 -4.980390 92.946500 -5.782660 -62.939200 -5.348130 -0.000001 -0.000004 -68.170800 -59.659100 -118.903000 -24.328900 0.000322 -0.000009 -0.001057 -18.409800 -0.000102 -22.291500 -0.000108 -0.000004 42.276200 5.470710 -5.397270 -2.192480 -6.469440 -0.000000 -173.639000 -6.519270 9.170460 39.081100 -0.000007 -0.000012 0.056067 -0.160294 19.278800 40.985400 -0.000006 -0.000013 1.266230 13.462600 -74.276800 11.754300 -0.000000 0.000003 -0.002283 0.199831 -8.469090 -2.192510 6.469440 -0.000001 174.612000 4.964200 -169.492000 -39.081100 -0.002282 -0.040193 0.031524 -0.092973 16.871400 -40.985400 0.000008 0.000006 -5.713580 6.559220 -74.551400 -11.754300 -0.000006 -0.000006 -0.011103 0.279371 -5.220970
0.000000 0.000000 0.000000 0.000000 0.000000 -0.000000 0.250219 91.516400 6.917970 88.854400 0.408406 7.580120 15.735700 0.000005 -0.000001 -123.816000 89.242700 124.988000 8.984550 -0.406207 -0.000000 -9.030540 0.668369 2.403390 16.377300 -0.000001 -0.000001 -4.444850 0.511404 -1.981680 6.456720 -0.000001 -0.000000 4.561840 -0.164089 -2.317520 12.994200 -0.242716 4.980390 -89.264800 -1.447180 -63.065600 5.348090 -0.000007 -0.000001 -70.465000 -59.402500 -113.136000 24.328600 0.000019 0.000005 -0.003926 -1.033370 -0.219971 22.291600 -0.000001 0.000005 51.533100 4.046870 23.557200 12.994500 -0.242716 -4.980390 92.949700 -5.785020 -62.923600 -5.348130 -0.000001 -0.000004 -68.050400 -59.612700 -118.798000 -24.328900 0.000322 -0.000009 -0.001053 -18.294400 -0.000102 -22.291500 -0.000108 -0.000004 42.217300 5.468490 -5.314730 -2.192480 -6.469440 -0.000000 -173.617000 -6.597220 9.067460 39.081100 -0.000007 -0.000012 0.055629 -0.158594 19.329200 40.985400 -0.000006 -0.000013 1.270030 13.505900 -74.249400 11.754300 -0.000000 0.000003 -0.002184 0.198624 -8.518200 -2.192510 6.469440 -0.000001 174.644000 4.953310 -169.589000 -39.081100 -0.002282 -0.040193 0.033839 -0.100288 16.922300 -40.985400 0.000008 0.000006 -5.671650 6.552870 -74.580000 -11.754300 -0.000006 -0.000006 -0.011118 0.279474 -5.216740
0.000000 0.000000 0.000000 0.000000 0.000000 -0.000000 0.229405 91.524600 6.920750 88.836000 0.413907 7.591950 15.735700 0.000005 -0.000001 -124.904000 89.264300 126.068000 8.984550 -0.406207 -0.000000 -8.978820 0.669086 2.386990 16.377300 -0.000001 -0.000001 -4.366060 0.521729 -1.969320 6.456720 -0.000001 -0.000000 4.554740 -0.149620 -2.329090 12.994200 -0.242716 4.980390 -89.277200 -1.423170 -63.071800 5.348090 -0.000007 -0.000001 -70.262400 -59.360100 -113.047000 24.328600 0.000019 0.000005 -0.003007 -1.177910 -0.148490 22.291600 -0.000001 0.000005 51.460800 4.054610 23.445800 12.994500 -0.242716 -4.980390 92.954200 -5.790190 -62.909000 -5.348130 -0.000001 -0.000004 -68.025000 -59.536700 -118.736000 -24.328900 0.000322 -0.000009 -0.001057 -18.345800 -0.000102 -22.291500 -0.000108 -0.000004 42.283000 5.469320 -5.345000 -2.192480 -6.469440 -0.000000 -173.593000 -6.527650 9.122410 39.081100 -0.000007 -0.000012 0.054124 -0.155054 19.242500 40.985400 -0.000006 -0.000013 1.238800 13.479200 -74.179800 11.754300 -0.000000 0.000003 -0.001938 0.195570 -8.642390 -2.192510 6.469440 -0.000001 174.672000 5.002610 -169.542000 -39.081100 -0.002282 -0.040193 0.031736 -0.093810 16.848400 -40.985400 0.000008 0.000006 -5.656660 6.506970 -74.524500 -11.754300 -0.000006 -0.000006 -0.011081 0.279214 -5.227380
